<svg width="262" height="86" viewBox="0 0 262 86" fill="none" xmlns="http://www.w3.org/2000/svg">
<path d="M85.8718 42.9359C85.8718 66.6572 66.6404 85.8718 42.9359 85.8718C19.2314 85.8718 0 66.6572 0 42.9359C0 19.2146 19.2314 0 42.9359 0C66.6708 0 85.8718 19.2146 85.8718 42.9359Z" fill="#0084A1"/>
<path d="M64.1297 31.1514C64.1297 35.9017 60.2929 39.7385 55.5425 39.7385C50.7921 39.7385 46.9553 35.9017 46.9553 31.1514C46.9553 26.401 50.7921 22.5642 55.5425 22.5642C60.2929 22.5642 64.1297 26.4314 64.1297 31.1514Z" fill="#DC6D48"/>
<path fill-rule="evenodd" clip-rule="evenodd" d="M5.74402 64.4039H12.028L14.1596 55.8167L17.3874 42.9359L20.6152 55.8167L22.7468 64.4039H24.0866L24.787 62.2419L26.949 55.8167L29.0806 62.2419L29.8114 64.4039H56.1515L56.8824 62.2419L59.0139 55.8167L61.1759 62.2419L61.8763 64.4039H63.2162L65.3477 55.8167L68.5756 42.9359L71.8033 55.8167L73.9349 64.4039H80.1277C79.2657 65.894 78.3167 67.3275 77.2877 68.6975H63.3075H59.0139H54.7203H31.2426H26.949H22.6554H17.3874H10.9318H8.58399C7.55498 67.3275 6.60601 65.894 5.74402 64.4039Z" fill="white"/>
<path d="M118.789 56.9616C118.789 63.2589 115.698 66.4075 109.458 66.4075C103.275 66.4075 100.184 63.2589 100.184 56.9616V29.4827C100.184 23.1854 103.275 20.0368 109.458 20.0368C115.698 20.0368 118.789 23.1854 118.789 29.4827V56.9616ZM112.32 29.4827C112.32 27.479 111.404 26.4485 109.515 26.4485H109.458C107.569 26.4485 106.653 27.479 106.653 29.4827V56.9616C106.653 58.9653 107.569 59.9958 109.458 59.9958C111.347 59.9958 112.32 58.9653 112.32 56.9616V29.4827Z" fill="#DC6D48"/>
<path d="M124.4 65.6633V20.7237H130.869V59.2515H141.173V65.6633H124.4Z" fill="#DC6D48"/>
<path d="M146.784 20.781H156.745C162.527 20.781 165.389 23.9296 165.389 30.2269V56.2747C165.389 62.5719 162.527 65.6633 156.745 65.6633C156.63 65.6633 156.516 65.6633 156.344 65.6633H146.784V20.781ZM153.253 27.1355V59.3088H156.115C158.004 59.3088 158.92 58.2783 158.92 56.2747V30.2269C158.92 28.166 158.004 27.1355 156.115 27.1355H153.253Z" fill="#DC6D48"/>
<path d="M189.548 56.9616C189.548 63.2589 186.456 66.4075 180.216 66.4075C174.034 66.4075 170.942 63.2589 170.942 56.9616V29.4826C170.942 23.1854 174.034 20.0367 180.216 20.0367C186.456 20.0367 189.548 23.1854 189.548 29.4826V56.9616ZM183.079 29.4826C183.079 27.479 182.163 26.4485 180.274 26.4485H180.216C178.327 26.4485 177.411 27.479 177.411 29.4826V56.9616C177.411 58.9653 178.327 59.9957 180.216 59.9957C182.106 59.9957 183.079 58.9653 183.079 56.9616V29.4826Z" fill="#0084A1"/>
<path d="M195.158 20.781H204.604C210.386 20.781 213.248 23.9296 213.248 30.2269V36.9821C213.248 40.9322 211.531 43.5656 208.153 44.7678L215.424 65.6633H208.325L202.486 45.9128L201.627 46.0273V65.6633H195.158V20.781ZM201.627 27.1355V40.0163H203.116C204.031 40.0163 204.661 39.959 204.947 39.8445C206.092 39.3866 206.722 38.4133 206.722 36.9821V30.2269C206.722 28.166 205.806 27.1355 203.917 27.1355H201.627Z" fill="#0084A1"/>
<path d="M237.464 56.9616C237.464 63.2589 234.373 66.4075 228.133 66.4075C221.95 66.4075 218.859 63.2589 218.859 56.9616V29.4826C218.859 23.1854 221.95 20.0367 228.133 20.0367C234.373 20.0367 237.464 23.1854 237.464 29.4826V35.5509H230.995V29.4826C230.995 27.479 230.079 26.4485 228.19 26.4485H228.133C226.244 26.4485 225.328 27.479 225.328 29.4826V56.9616C225.328 58.9653 226.244 59.9957 228.133 59.9957C230.022 59.9957 230.995 58.9653 230.995 56.9616V50.8933H237.464V56.9616Z" fill="#0084A1"/>
<path d="M243.075 29.4826C243.075 23.1854 246.166 20.0367 252.349 20.0367C258.589 20.0367 261.68 23.1854 261.68 29.4826V35.5509H255.211V29.4826C255.211 27.479 254.295 26.4485 252.406 26.4485H252.349C250.46 26.4485 249.544 27.479 249.544 29.4826V33.5472C249.544 35.5509 251.547 38.0126 255.612 40.875C259.676 43.7373 261.68 47.2295 261.68 51.2368V56.9044C261.68 63.2016 258.589 66.3503 252.406 66.3503C246.166 66.3503 243.075 63.2016 243.075 56.9044V50.8361H249.544V56.9044C249.544 58.908 250.517 59.9385 252.406 59.9385C254.295 59.9385 255.211 58.908 255.211 56.9044V51.752C255.211 49.5766 253.207 47.0577 249.143 44.1381C245.078 41.2757 243.075 37.7263 243.075 33.6045V29.4826Z" fill="#0084A1"/>
</svg>
