<svg width="25" height="25" viewBox="0 0 25 25" fill="none" xmlns="http://www.w3.org/2000/svg">
<path d="M18.0728 0H6.9271C5.99853 0 5.23853 0.759286 5.23853 1.68857V23.3107C5.23853 24.24 5.99853 25 6.9271 25H18.0728C19.0014 25 19.7614 24.2414 19.7614 23.3114V1.68857C19.7614 0.759286 19.0014 0 18.0728 0ZM10.7171 1.21714H14.2828C14.3957 1.21714 14.4871 1.30857 14.4871 1.42214C14.4871 1.535 14.3957 1.62643 14.2828 1.62643H10.7171C10.6042 1.62643 10.5128 1.535 10.5128 1.42214C10.5128 1.30857 10.6042 1.21714 10.7171 1.21714ZM12.5 24.1557C12.0335 24.1557 11.6557 23.7779 11.6557 23.3107C11.6557 22.8436 12.0335 22.4664 12.5 22.4664C12.9664 22.4664 13.3442 22.8436 13.3442 23.3107C13.3442 23.7779 12.9664 24.1557 12.5 24.1557ZM18.5864 21.875H6.41353V2.67786H18.5864V21.875Z" fill="#0084A1"/>
</svg>
